# File created by Blade
# Date/Time:  Wed Jan 21 17:16:23 2015
# Frame Rate: 120.000 fps
#------------------------------------------------------
:FULLY-SPECIFIED
:DEGREES
1917
root 24.322336 6.712033 -15.706044 -183.667601 -8.089679 -242.087631
Spine 36.320457 2.513146 -30.738342
Head -3.315568 52.846479 -42.867608
LeftShoulder -18.130535 -23.654277 -12.284479
LeftArm -17.141910 12.844263 -44.768575
LeftForeArm -14.757598 0.000000 31.338161
LeftHand -6.647697 0.000000 -15.773084
LeftHandThumb1 -26.253704 0.000000 33.147579
RightShoulder -5.612881 -25.595467 -15.932041
RightArm -9.817459 -26.261851 84.974246
RightForeArm -65.656616 -0.000000 74.008181
RightHand -12.859323 -0.000000 -13.949160
RightHandThumb1 -24.326973 -0.000000 -32.862282
LeftUpLeg -17.893769 13.466379 18.239844
LeftLeg 144.655225 -0.000000 -0.000000
LeftFoot 28.120642 14.706094 21.234427
LeftToeBase 13.676549 -0.000000 -0.000000
RightUpLeg -98.245846 -7.640139 26.563554
RightLeg 121.733037 -0.000000 -0.000000
RightFoot 25.320179 -23.878470 -1.897336
RightToeBase 40.291271 -0.000000 -0.000000
1918
root 24.325531 6.713583 -15.694054 -183.659417 -8.183562 -242.158803
Spine 36.410426 2.786299 -30.721954
Head -3.394559 52.762227 -42.865199
LeftShoulder -18.237417 -23.664891 -12.001708
LeftArm -17.465880 13.128870 -44.806608
LeftForeArm -14.609747 -0.000000 33.150256
LeftHand -7.116812 -0.000000 -15.731801
LeftHandThumb1 -26.253704 0.000000 33.147579
RightShoulder -5.633734 -25.673210 -15.911549
RightArm -9.848029 -26.267219 85.098482
RightForeArm -65.402873 -0.000000 73.824828
RightHand -12.576555 -0.000000 -13.823354
RightHandThumb1 -24.326973 -0.000000 -32.862282
LeftUpLeg -18.325614 13.188330 18.413658
LeftLeg 144.903767 -0.000000 -0.000000
LeftFoot 26.263866 15.483815 20.024615
LeftToeBase 14.864243 -0.000000 -0.000000
RightUpLeg -98.237714 -7.693649 26.522263
RightLeg 121.718183 -0.000000 -0.000000
RightFoot 25.222071 -24.016843 -2.037818
RightToeBase 40.409551 -0.000000 -0.000000
1919
root 24.329542 6.717594 -15.680107 -183.660734 -8.295303 -242.240917
Spine 36.532703 3.069382 -30.705541
Head -3.464081 52.665124 -42.851625
LeftShoulder -18.309394 -23.599806 -11.793987
LeftArm -17.645236 13.384685 -44.789036
LeftForeArm -14.486297 0.000000 34.857776
LeftHand -7.546120 -0.000000 -15.696607
LeftHandThumb1 -26.253704 0.000000 33.147579
RightShoulder -5.674578 -25.659384 -15.899336
RightArm -9.967444 -26.302231 85.287448
RightForeArm -65.393280 0.000000 73.613013
RightHand -12.890324 0.000000 -14.483186
RightHandThumb1 -24.326973 -0.000000 -32.862282
LeftUpLeg -18.773755 12.898921 18.559492
LeftLeg 145.162950 -0.000000 -0.000000
LeftFoot 24.500166 15.955802 19.096677
LeftToeBase 14.993359 -0.000000 -0.000000
RightUpLeg -98.226720 -7.789188 26.425523
RightLeg 121.697257 -0.000000 -0.000000
RightFoot 25.163385 -23.876895 -2.162938
RightToeBase 40.531071 -0.000000 -0.000000
1920
root 24.330056 6.718501 -15.667452 -183.631218 -8.413594 -242.347627
Spine 36.585605 3.312800 -30.753142
Head -3.493625 52.598376 -42.770978
LeftShoulder -18.452342 -23.479145 -11.522773
LeftArm -17.781241 13.559829 -44.797302
LeftForeArm -14.554891 -0.000000 36.499305
LeftHand -7.981710 -0.000000 -15.748999
LeftHandThumb1 -26.253704 0.000000 33.147579
RightShoulder -5.677675 -25.697340 -15.899945
RightArm -10.034976 -26.375888 85.453349
RightForeArm -65.226522 0.000000 73.409513
RightHand -13.039831 -0.000000 -14.787362
RightHandThumb1 -24.326973 -0.000000 -32.862282
LeftUpLeg -19.247812 12.602564 18.681967
LeftLeg 145.493567 -0.000000 -0.000000
LeftFoot 22.556168 16.101298 18.274400
LeftToeBase 14.794099 -0.000000 -0.000000
RightUpLeg -98.280431 -7.890622 26.287959
RightLeg 121.715859 -0.000000 -0.000000
RightFoot 25.172825 -23.719079 -2.295296
RightToeBase 40.585053 -0.000000 -0.000000
1921
root 24.333716 6.720085 -15.655308 -183.621412 -8.535214 -242.429916
Spine 36.666638 3.603182 -30.764773
Head -3.516868 52.471791 -42.678758
LeftShoulder -18.558721 -23.452035 -11.243918
LeftArm -17.955044 13.820043 -44.812153
LeftForeArm -14.515609 -0.000000 38.069115
LeftHand -8.268536 -0.000000 -15.790839
LeftHandThumb1 -26.253704 0.000000 33.147579
RightShoulder -5.719476 -25.762444 -15.820013
RightArm -10.101937 -26.345061 85.568185
RightForeArm -65.113109 -0.000000 73.272615
RightHand -13.018847 -0.000000 -14.866476
RightHandThumb1 -24.326973 -0.000000 -32.862282
LeftUpLeg -19.738618 12.348895 18.865105
LeftLeg 145.848310 -0.000000 -0.000000
LeftFoot 20.354136 16.063527 17.184406
LeftToeBase 14.790839 -0.000000 -0.000000
RightUpLeg -98.304941 -7.997531 26.154979
RightLeg 121.720720 -0.000000 -0.000000
RightFoot 25.166732 -23.539970 -2.272460
RightToeBase 40.599265 -0.000000 -0.000000
1922
root 24.337159 6.719938 -15.641652 -183.598486 -8.660138 -242.504440
Spine 36.725530 3.876147 -30.772852
Head -3.540440 52.371868 -42.581132
LeftShoulder -18.637708 -23.377765 -11.024319
LeftArm -18.090499 13.945999 -44.770429
LeftForeArm -14.520815 -0.000000 39.661252
LeftHand -8.742001 -0.000000 -15.780386
LeftHandThumb1 -26.253704 0.000000 33.147579
RightShoulder -5.749438 -25.845590 -15.767179
RightArm -10.136161 -26.338665 85.718857
RightForeArm -64.948984 0.000000 73.087891
RightHand -13.081692 -0.000000 -15.131897
RightHandThumb1 -24.326973 -0.000000 -32.862282
LeftUpLeg -20.268173 12.137983 19.028083
LeftLeg 146.175740 -0.000000 -0.000000
LeftFoot 18.065694 15.975034 16.039491
LeftToeBase 15.332064 -0.000000 -0.000000
RightUpLeg -98.337186 -8.091647 26.060629
RightLeg 121.704260 -0.000000 -0.000000
RightFoot 25.141207 -23.394934 -2.263908
RightToeBase 40.628551 -0.000000 -0.000000
1923
root 24.338712 6.721788 -15.631939 -183.604595 -8.782413 -242.575208
Spine 36.807602 4.139597 -30.793733
Head -3.596884 52.312069 -42.516949
LeftShoulder -18.741018 -23.409962 -10.783366
LeftArm -18.293787 14.021538 -44.716190
LeftForeArm -14.290648 -0.000000 41.224971
LeftHand -9.121226 -0.000000 -15.969655
LeftHandThumb1 -26.253704 0.000000 33.147579
RightShoulder -5.753161 -25.869583 -15.748503
RightArm -10.212389 -26.316579 85.887765
RightForeArm -64.661873 -0.000000 72.921565
RightHand -12.820131 -0.000000 -14.835730
RightHandThumb1 -24.326973 -0.000000 -32.862282
LeftUpLeg -20.810493 11.963466 19.202043
LeftLeg 146.436474 -0.000000 -0.000000
LeftFoot 16.059784 15.850621 14.824656
LeftToeBase 15.507435 -0.000000 -0.000000
RightUpLeg -98.356071 -8.215614 25.948279
RightLeg 121.710039 -0.000000 -0.000000
RightFoot 25.141409 -23.265775 -2.215899
RightToeBase 40.584640 -0.000000 -0.000000
1924
root 24.341352 6.726019 -15.622882 -183.622519 -8.906992 -242.652562
Spine 36.894101 4.428918 -30.816560
Head -3.594033 52.163458 -42.396009
LeftShoulder -18.815356 -23.340233 -10.575479
LeftArm -18.386177 14.171696 -44.697094
LeftForeArm -14.216819 0.000000 42.757946
LeftHand -9.562015 -0.000000 -15.751189
LeftHandThumb1 -26.253704 0.000000 33.147579
RightShoulder -5.748130 -25.909440 -15.713593
RightArm -10.288821 -26.285755 86.075896
RightForeArm -64.648135 -0.000000 72.717825
RightHand -13.181614 0.000000 -15.385109
RightHandThumb1 -24.326973 -0.000000 -32.862282
LeftUpLeg -21.360290 11.863085 19.380817
LeftLeg 146.656925 -0.000000 -0.000000
LeftFoot 14.212653 15.622562 13.782175
LeftToeBase 15.966288 -0.000000 -0.000000
RightUpLeg -98.365044 -8.358266 25.827588
RightLeg 121.714695 -0.000000 -0.000000
RightFoot 25.137559 -23.163463 -2.106292
RightToeBase 40.521287 -0.000000 -0.000000
1925
root 24.342820 6.728425 -15.613189 -183.617463 -9.041787 -242.703975
Spine 36.967021 4.646198 -30.849752
Head -3.744085 52.106575 -42.410266
LeftShoulder -18.957984 -23.372127 -10.367398
LeftArm -18.520770 14.255943 -44.619789
LeftForeArm -13.909718 -0.000000 44.306583
LeftHand -9.971518 -0.000000 -15.668160
LeftHandThumb1 -26.253704 0.000000 33.147579
RightShoulder -5.736989 -25.905218 -15.677100
RightArm -10.368020 -26.281358 86.236344
RightForeArm -64.550573 -0.000000 72.510771
RightHand -13.329911 0.000000 -15.609887
RightHandThumb1 -24.326973 -0.000000 -32.862282
LeftUpLeg -22.000923 11.822569 19.544814
LeftLeg 146.850723 -0.000000 -0.000000
LeftFoot 12.731404 15.497961 12.663211
LeftToeBase 16.096290 -0.000000 -0.000000
RightUpLeg -98.382593 -8.484565 25.825041
RightLeg 121.693065 -0.000000 -0.000000
RightFoot 25.043583 -23.326637 -2.141916
RightToeBase 40.611118 -0.000000 -0.000000
1926
root 24.345985 6.734276 -15.605155 -183.646211 -9.176993 -242.774844
Spine 37.072907 4.930245 -30.892277
Head -3.810242 51.955657 -42.308290
LeftShoulder -19.073828 -23.308784 -10.180057
LeftArm -18.478047 14.282148 -44.555769
LeftForeArm -13.281211 0.000000 45.792095
LeftHand -10.461374 0.000000 -15.527724
LeftHandThumb1 -26.253704 0.000000 33.147579
RightShoulder -5.726374 -25.899552 -15.633613
RightArm -10.458740 -26.254332 86.426931
RightForeArm -64.370247 0.000000 72.293394
RightHand -13.427276 0.000000 -15.781951
RightHandThumb1 -24.326973 -0.000000 -32.862282
LeftUpLeg -22.609962 11.820824 19.696582
LeftLeg 147.024779 -0.000000 -0.000000
LeftFoot 11.342357 15.352890 11.695468
LeftToeBase 16.156685 -0.000000 -0.000000
RightUpLeg -98.383886 -8.645670 25.748616
RightLeg 121.687321 -0.000000 -0.000000
RightFoot 25.022046 -23.398250 -2.039308
RightToeBase 40.515494 -0.000000 -0.000000
1927
root 24.349719 6.739282 -15.597858 -183.696447 -9.318577 -242.861473
Spine 37.201678 5.234738 -30.966902
Head -3.856066 51.884250 -42.159719
LeftShoulder -19.151030 -23.228295 -10.007308
LeftArm -18.397708 14.260890 -44.474346
LeftForeArm -12.672736 -0.000000 47.225987
LeftHand -10.911109 -0.000000 -15.214814
LeftHandThumb1 -26.253704 0.000000 33.147579
RightShoulder -5.731286 -25.940727 -15.592974
RightArm -10.473904 -26.216113 86.616425
RightForeArm -64.200997 -0.000000 72.041419
RightHand -13.470283 0.000000 -15.949931
RightHandThumb1 -24.326973 -0.000000 -32.862282
LeftUpLeg -23.209381 11.803582 19.838711
LeftLeg 147.175564 -0.000000 -0.000000
LeftFoot 10.245396 15.169329 10.996759
LeftToeBase 15.798388 -0.000000 -0.000000
RightUpLeg -98.373795 -8.821529 25.625499
RightLeg 121.687801 -0.000000 -0.000000
RightFoot 25.037014 -23.318656 -1.998414
RightToeBase 40.553067 -0.000000 -0.000000
1928
root 24.356321 6.744110 -15.590271 -183.758280 -9.452897 -242.929289
Spine 37.318973 5.565520 -30.999548
Head -3.777676 51.746079 -41.920370
LeftShoulder -19.053779 -23.355228 -9.837216
LeftArm -18.598956 14.260337 -44.390577
LeftForeArm -12.093781 -0.000000 48.564605
LeftHand -11.216042 0.000000 -15.078882
LeftHandThumb1 -26.253704 0.000000 33.147579
RightShoulder -5.711762 -25.938008 -15.597517
RightArm -10.544645 -26.126910 86.889204
RightForeArm -64.040093 -0.000000 71.741745
RightHand -13.477658 -0.000000 -16.128988
RightHandThumb1 -24.326973 -0.000000 -32.862282
LeftUpLeg -23.782514 11.814243 20.016327
LeftLeg 147.304304 -0.000000 -0.000000
LeftFoot 9.260997 15.009226 10.610580
LeftToeBase 15.587176 -0.000000 -0.000000
RightUpLeg -98.331388 -8.997772 25.543470
RightLeg 121.667176 -0.000000 -0.000000
RightFoot 25.026687 -23.305637 -2.015797
RightToeBase 40.636103 -0.000000 -0.000000
